<svg width="101" height="101" viewBox="0 0 101 101" fill="none" xmlns="http://www.w3.org/2000/svg">
<path d="M80.6407 23.0428C75.123 20.4706 69.149 18.6037 62.926 17.5251C62.8714 17.5233 62.8171 17.5336 62.767 17.5551C62.7168 17.5766 62.6719 17.6088 62.6356 17.6496C61.8888 19.0186 61.0176 20.8025 60.4368 22.1716C53.8363 21.1759 47.1238 21.1759 40.5232 22.1716C39.9424 20.761 39.0712 19.0186 38.283 17.6496C38.2415 17.5666 38.117 17.5251 37.9926 17.5251C31.7696 18.6037 25.837 20.4706 20.2778 23.0428C20.2363 23.0428 20.1948 23.0843 20.1533 23.1258C8.86901 40.0108 5.75752 56.4395 7.29252 72.7022C7.29252 72.7852 7.33401 72.8681 7.41698 72.9096C14.8846 78.3859 22.0617 81.7048 29.1559 83.9036C29.2804 83.9451 29.4048 83.9036 29.4463 83.8206C31.1058 81.5388 32.5993 79.1326 33.8854 76.6019C33.9684 76.436 33.8854 76.27 33.7194 76.2286C31.3547 75.3159 29.1144 74.2372 26.9157 72.9926C26.7497 72.9096 26.7497 72.6607 26.8742 72.5363C27.3305 72.2044 27.7869 71.831 28.2432 71.4991C28.3262 71.4161 28.4507 71.4161 28.5336 71.4576C42.805 77.971 58.1965 77.971 72.3019 71.4576C72.3849 71.4161 72.5094 71.4161 72.5923 71.4991C73.0487 71.8725 73.505 72.2044 73.9614 72.5777C74.1273 72.7022 74.1273 72.9511 73.9199 73.0341C71.7626 74.3202 69.4809 75.3573 67.1161 76.27C66.9502 76.3115 66.9087 76.519 66.9502 76.6434C68.2777 79.1741 69.7713 81.5803 71.3892 83.8621C71.5137 83.9036 71.6381 83.9451 71.7626 83.9036C78.8983 81.7048 86.0755 78.3859 93.543 72.9096C93.626 72.8681 93.6675 72.7852 93.6675 72.7022C95.4929 53.9088 90.639 37.6046 80.8067 23.1258C80.7652 23.0843 80.7237 23.0428 80.6407 23.0428ZM36.0427 62.7869C31.7696 62.7869 28.2017 58.8457 28.2017 53.9918C28.2017 49.1378 31.6866 45.1966 36.0427 45.1966C40.4403 45.1966 43.9251 49.1793 43.8837 53.9918C43.8837 58.8457 40.3988 62.7869 36.0427 62.7869ZM64.9588 62.7869C60.6857 62.7869 57.1179 58.8457 57.1179 53.9918C57.1179 49.1378 60.6027 45.1966 64.9588 45.1966C69.3564 45.1966 72.8413 49.1793 72.7998 53.9918C72.7998 58.8457 69.3564 62.7869 64.9588 62.7869Z" fill="#005958"/>
</svg>
