<svg width="100" height="101" viewBox="0 0 100 101" fill="none" xmlns="http://www.w3.org/2000/svg">
<path d="M93.2254 25.7216C90.0309 27.1737 86.5876 28.1278 83.0197 28.5842C86.6705 26.3854 89.4916 22.9005 90.8192 18.7104C87.3758 20.7847 83.559 22.2368 79.5348 23.0665C76.2574 19.4986 71.6524 17.4243 66.4251 17.4243C56.6758 17.4243 48.7103 25.3897 48.7103 35.222C48.7103 36.6326 48.8763 38.0016 49.1667 39.2877C34.3975 38.541 21.2462 31.4468 12.4926 20.7018C10.9576 23.3154 10.0864 26.3854 10.0864 29.6214C10.0864 35.8029 13.1979 41.2791 18.0103 44.3906C15.0647 44.3906 12.3266 43.5608 9.92042 42.3162V42.4407C9.92042 51.0699 16.0604 58.2886 24.1918 59.9065C21.5812 60.621 18.8404 60.7204 16.1849 60.1969C17.3117 63.7336 19.5185 66.8282 22.4951 69.0457C25.4716 71.2633 29.0683 72.4923 32.7795 72.5599C26.4886 77.5401 18.6907 80.2321 10.6672 80.1935C9.25663 80.1935 7.84609 80.1105 6.43555 79.9445C14.318 85.0059 23.694 87.9514 33.7337 87.9514C66.4251 87.9514 84.3888 60.8192 84.3888 37.2964C84.3888 36.5081 84.3888 35.7614 84.3473 34.9731C87.8322 32.4839 90.8192 29.331 93.2254 25.7216Z" fill="#005958"/>
</svg>
